<!--?xml version="1.0" encoding="utf-8"?-->
<!-- Generator: Adobe Illustrator 18.1.1, SVG Export Plug-In . SVG Version: 6.00 Build 0)  -->

<svg version="1.1" id="_x32_" xmlns="http://www.w3.org/2000/svg" xmlns:xlink="http://www.w3.org/1999/xlink" x="0px" y="0px" viewBox="0 0 512 512" style="width: 256px; height: 256px; opacity: 1;" xml:space="preserve">
<style type="text/css">
	.st0{fill:#4B4B4B;}
</style>
<g>
	<path class="st0" d="M253.2,162.198h0.095v28.111h30.914v-28.174c30.672-0.59,44.659-17.897,32.643-63.578
		c-9.518-36.216-12.237-88.148-48.959-88.148c-36.732,0-39.441,51.931-48.97,88.148C206.686,145.06,221.38,162.198,253.2,162.198z" style="fill: rgb(75, 75, 75);"></path>
	<path class="st0" d="M373.99,252.59h0.116v34.856h38.334v-34.93c38.03-0.749,55.389-22.198,40.485-78.852
		c-11.806-44.902-15.178-109.291-60.722-109.291c-45.533,0-48.906,64.39-60.711,109.291
		C316.325,231.341,334.538,252.59,373.99,252.59z" style="fill: rgb(75, 75, 75);"></path>
	<path class="st0" d="M328.604,277.981c-107.636-46.977-160.484-64.58-197.659-109.606C92.884,122.293,172.02,52.896,218.997,21.624
		h-77.048C57.48,52.391-55.985,160.068,31.594,250.64c12.184-22.208,30.63-38.503,60.711-38.503
		c60.026,0,73.739,64.833,83.762,112.168c2.171,10.298,4.237,20.027,6.588,28.954c3.9,14.841,6.04,28.153,6.577,40.148
		c21.228,36.637,15.041,69.776-21.112,108.184h338.581C534.106,411.051,452.293,331.947,328.604,277.981z" style="fill: rgb(75, 75, 75);"></path>
	<path class="st0" d="M92.305,233.723c-52.09,0-55.947,73.645-69.45,125.028c-17.36,65.982,3.479,90.298,48.611,90.298h0.137v39.874
		h43.858v-39.958c43.509-0.854,63.367-25.402,46.313-90.213C148.263,307.368,144.404,233.723,92.305,233.723z" style="fill: rgb(75, 75, 75);"></path>
</g>
</svg>
